<svg height="512pt" viewBox="0 -28 512 511" width="512pt" xmlns="http://www.w3.org/2000/svg"><path d="m274.707031 122.027344h-37.847656v-18.921875c0-10.449219 8.472656-18.921875 18.921875-18.921875 10.453125 0 18.921875 8.472656 18.921875 18.921875v18.921875zm0 0" fill="#d9efec"/><path d="m307.222656 316.445312h-108.128906c-10.25 0-18.5625-8.3125-18.5625-18.5625v-170.472656c0-10.253906 8.3125-18.5625 18.5625-18.5625h108.128906c10.253906 0 18.5625 8.308594 18.5625 18.5625v170.472656c0 10.25-8.308594 18.5625-18.5625 18.5625zm0 0" fill="#f55"/><path d="m325.785156 127.40625v170.472656c0 10.253906-8.3125 18.566406-18.558594 18.566406h-32.390624c10.242187 0 18.558593-8.3125 18.558593-18.566406v-170.472656c0-10.246094-8.316406-18.558594-18.558593-18.558594h32.390624c10.246094 0 18.558594 8.3125 18.558594 18.558594zm0 0" fill="#f72b2b"/><path d="m180.53125 158.558594h145.253906v118.128906h-145.253906zm0 0" fill="#d9efec"/><path d="m293.390625 158.558594h32.394531v118.128906h-32.394531zm0 0" fill="#c1dbd6"/><path d="m52.796875 185.308594c-6.445313 0-11.667969-5.226563-11.667969-11.671875v-54.039063h23.339844v54.039063c0 6.445312-5.226562 11.671875-11.671875 11.671875zm0 0" fill="#628fb1"/><path d="m168.570312 59.203125c0-23.851563-19.335937-43.1875-43.191406-43.1875-15.945312 0-29.863281 8.644531-37.34375 21.5-7.480468-12.855469-21.398437-21.5-37.34375-21.5-23.855468 0-43.191406 19.335937-43.191406 43.1875 0 60.441406 80.535156 112.488281 80.535156 112.488281s80.535156-52.046875 80.535156-112.488281zm0 0" fill="#d9efec"/><path d="m10.804688 80.847656c15.136718 50.707032 77.230468 90.84375 77.230468 90.84375s62.097656-40.136718 77.234375-90.84375zm0 0" fill="#f55"/><path d="m138.617188 80.847656c-18.042969 38.917969-60.03125 69.394532-70.054688 76.285156 11.21875 9.226563 19.46875 14.558594 19.46875 14.558594s62.105469-40.136718 77.238281-90.847656h-26.652343zm0 0" fill="#f72b2b"/><path d="m453.011719 251.300781c6.441406 0 11.667969 5.226563 11.667969 11.671875v54.039063h-23.339844v-54.039063c0-6.445312 5.226562-11.671875 11.671875-11.671875zm0 0" fill="#628fb1"/><path d="m504.5 336.144531c0-23.855469-19.335938-43.191406-43.191406-43.191406-15.945313 0-29.863282 8.648437-37.34375 21.503906-7.484375-12.855469-21.398438-21.503906-37.347656-21.503906-23.851563 0-43.1875 19.335937-43.1875 43.191406 0 60.441407 80.535156 112.488281 80.535156 112.488281s80.535156-52.046874 80.535156-112.488281zm0 0" fill="#f55"/><path d="m504.5 336.148438c0 60.4375-80.539062 112.488281-80.539062 112.488281s-7.019532-4.539063-16.921876-12.488281c23.621094-18.980469 63.621094-57.410157 63.621094-100 0-17.851563-10.832031-33.171876-26.28125-39.75 5.199219-2.210938 10.921875-3.441407 16.929688-3.441407 23.851562 0 43.191406 19.339844 43.191406 43.191407zm0 0" fill="#f72b2b"/><path d="m333.285156 276.664062v-35.257812c0-4.140625-3.355468-7.5-7.5-7.5-4.144531 0-7.5 3.359375-7.5 7.5v27.777344h-130.253906v-55.777344c0-4.140625-3.355469-7.5-7.5-7.5-4.140625 0-7.5 3.359375-7.5 7.5v84.476562c0 14.371094 11.691406 26.0625 26.066406 26.0625h46.550782c-.503907 50.53125-41.761719 91.492188-92.414063 91.492188-50.964844 0-92.425781-41.464844-92.425781-92.425781v-131.980469c6.578125-3.042969 11.160156-9.6875 11.160156-17.394531v-4.195313c6.652344 5.058594 11.234375 8.058594 11.996094 8.550782 1.238281.800781 2.65625 1.199218 4.070312 1.199218 1.417969 0 2.832032-.398437 4.074219-1.199218.652344-.421876 16.242187-10.558594 33.914063-27.152344 3.019531-2.832032 3.167968-7.582032.332031-10.601563-2.835938-3.019531-7.582031-3.167969-10.601563-.332031-11.4375 10.742188-22.113281 18.722656-27.710937 22.6875-12.613281-8.964844-51.113281-38.449219-66.539063-74.246094h133.046875c-3.828125 8.871094-9.308593 17.964844-16.472656 27.230469-2.53125 3.277344-1.925781 7.988281 1.351563 10.523437 3.277343 2.53125 7.988281 1.925782 10.519531-1.351562 17.335937-22.433594 26.125-44.484375 26.125-65.542969 0-27.949219-22.738281-50.691406-50.691407-50.691406-14.292968 0-27.839843 6.113281-37.34375 16.445313-9.507812-10.332032-23.054687-16.445313-37.347656-16.445313-27.953125 0-50.691406 22.738281-50.691406 50.6875 0 28.21875 15.757812 54.273437 33.628906 74.757813v39.675781c0 8.101562 5.058594 15.03125 12.179688 17.832031v131.542969c0 59.230469 48.191406 107.421875 107.425781 107.421875 58.921875 0 106.910156-47.683594 107.414063-106.492188h46.574218c14.371094 0 26.0625-11.6875 26.0625-26.0625v-21.175781c0-.007813 0-.011719 0-.019531 0-.003906 0-.011719 0-.019532zm-276.316406-119.46875v16.441407c0 2.300781-1.871094 4.167969-4.171875 4.167969-2.296875 0-4.167969-1.871094-4.167969-4.167969v-24.050781c2.839844 2.703124 5.636719 5.242187 8.339844 7.609374zm-6.277344-133.679687c12.65625 0 24.480469 6.808594 30.863282 17.773437 1.339843 2.308594 3.808593 3.726563 6.480468 3.726563 2.667969 0 5.140625-1.417969 6.480469-3.726563 6.382813-10.964843 18.210937-17.773437 30.863281-17.773437 19.679688 0 35.691406 16.011719 35.691406 35.6875 0 4.628906-.542968 9.347656-1.601562 14.144531h-142.875c-1.027344-4.65625-1.59375-9.378906-1.59375-14.144531 0-19.679687 16.011719-35.6875 35.691406-35.6875zm256.53125 285.429687h-108.128906c-6.097656 0-11.0625-4.964843-11.0625-11.0625v-13.695312h130.253906v13.695312c0 6.097657-4.964844 11.0625-11.0625 11.0625zm0 0"/><path d="m220.765625 179.058594c-4.140625 0-7.5 3.359375-7.5 7.5v2.5625h-2.5625c-4.140625 0-7.5 3.359375-7.5 7.5 0 4.144531 3.359375 7.5 7.5 7.5h2.5625v2.5625c0 4.144531 3.359375 7.5 7.5 7.5s7.5-3.355469 7.5-7.5v-2.5625h2.5625c4.144531 0 7.5-3.355469 7.5-7.5 0-4.140625-3.355469-7.5-7.5-7.5h-2.5625v-2.5625c0-4.140625-3.359375-7.5-7.5-7.5zm0 0"/><path d="m255.785156 194.058594h16.332032c4.144531 0 7.5-3.359375 7.5-7.5s-3.355469-7.5-7.5-7.5h-16.332032c-4.144531 0-7.5 3.359375-7.5 7.5s3.355469 7.5 7.5 7.5zm0 0"/><path d="m255.785156 213.308594h40.25c4.144532 0 7.5-3.359375 7.5-7.5s-3.355468-7.5-7.5-7.5h-40.25c-4.144531 0-7.5 3.359375-7.5 7.5s3.355469 7.5 7.5 7.5zm0 0"/><path d="m210.703125 239.171875h88.832031c4.144532 0 7.5-3.359375 7.5-7.5 0-4.144531-3.355468-7.5-7.5-7.5h-88.832031c-4.140625 0-7.5 3.355469-7.5 7.5 0 4.140625 3.359375 7.5 7.5 7.5zm0 0"/><path d="m210.703125 259.054688h88.832031c4.144532 0 7.5-3.359376 7.5-7.5 0-4.140626-3.355468-7.5-7.5-7.5h-88.832031c-4.140625 0-7.5 3.359374-7.5 7.5 0 4.140624 3.359375 7.5 7.5 7.5zm0 0"/><path d="m472.179688 286.640625v-23.667969c0-7.910156-4.816407-14.714844-11.667969-17.636718v-137.410157c0-59.234375-48.191407-107.425781-107.425781-107.425781-47.421876 0-89.523438 31.507812-102.976563 76.804688-11.292969 2.480468-19.898437 12.207031-20.683594 24.042968h-30.332031c-14.371094 0-26.0625 11.691406-26.0625 26.0625v51.820313c0 4.140625 3.359375 7.5 7.5 7.5 4.144531 0 7.5-3.359375 7.5-7.5v-13.171875h130.253906v41.171875c0 4.140625 3.355469 7.5 7.5 7.5 4.140625 0 7.5-3.359375 7.5-7.5v-48.652344c0-.007813 0-.011719 0-.019531 0-.003906 0-.011719 0-.019532v-31.128906c0-14.371094-11.691406-26.0625-26.0625-26.0625h-25.082031c-.6875-10.398437-7.414063-19.164062-16.695313-22.828125 12.515626-37.324219 47.910157-63.019531 87.636719-63.019531 50.964844 0 92.425781 41.460938 92.425781 92.425781v137.40625c-6.851562 2.925781-11.667968 9.730469-11.667968 17.640625v30.613282c-3.613282 2.332031-6.941406 5.117187-9.875 8.3125-9.503906-10.332032-23.054688-16.445313-37.347656-16.445313-27.949219 0-50.6875 22.742187-50.6875 50.691406 0 63.792969 80.535156 116.570313 83.964843 118.785157 1.238281.800781 2.652344 1.203124 4.070313 1.203124 1.414062 0 2.832031-.402343 4.066406-1.203124.855469-.546876 21.074219-13.707032 41.558594-34.628907 28.140625-28.746093 42.410156-57.058593 42.410156-84.15625 0-24.21875-17.078125-44.511719-39.820312-49.503906zm-153.894532-159.230469v23.648438h-130.253906v-23.648438c0-6.101562 4.964844-11.0625 11.066406-11.0625h108.125c6.097656 0 11.0625 4.960938 11.0625 11.0625zm-73.773437-26.0625c.851562-5.464844 5.574219-9.664062 11.273437-9.664062 5.699219 0 10.421875 4.199218 11.273438 9.664062zm204.328125 161.625c0-2.300781 1.871094-4.171875 4.171875-4.171875 2.296875 0 4.167969 1.871094 4.167969 4.171875v22.667969c-2.832032.234375-5.621094.703125-8.339844 1.398437zm-24.875 176.554688c-15.925782-11.320313-73.035156-55.28125-73.035156-103.382813 0-19.679687 16.011718-35.691406 35.691406-35.691406 12.652344 0 24.480468 6.8125 30.863281 17.777344 1.339844 2.308593 3.8125 3.726562 6.480469 3.726562 2.667968 0 5.136718-1.421875 6.480468-3.726562 6.382813-10.964844 18.207032-17.777344 30.863282-17.777344 19.679687 0 35.6875 16.011719 35.6875 35.691406.003906 48.105469-57.109375 92.066407-73.03125 103.382813zm0 0"/></svg>